<svg width="26" height="16" viewBox="0 0 26 16" fill="none" xmlns="http://www.w3.org/2000/svg">
<path d="M25.3418 1.34929C25.5182 0.763256 25.3418 0.333496 24.5075 0.333496H21.7436C21.0404 0.333496 20.719 0.705283 20.5426 1.11362C20.5426 1.11362 19.1373 4.54035 17.1461 6.76225C16.5033 7.40878 16.2097 7.61294 15.8593 7.61294C15.6841 7.61294 15.4296 7.40878 15.4296 6.82274V1.34929C15.4296 0.646049 15.2267 0.333496 14.6406 0.333496H10.2977C9.85908 0.333496 9.59441 0.658652 9.59441 0.968684C9.59441 1.63412 10.59 1.78787 10.6921 3.66319V7.73141C10.6921 8.62244 10.5321 8.78502 10.1792 8.78502C9.24279 8.78502 6.96418 5.34568 5.61189 1.40853C5.34849 0.643528 5.08257 0.334757 4.3768 0.334757H1.61424C0.824041 0.334757 0.666504 0.706543 0.666504 1.11488C0.666504 1.84837 1.6029 5.47801 5.02838 10.2785C7.31203 13.5565 10.527 15.3335 13.4559 15.3335C15.2115 15.3335 15.4283 14.939 15.4283 14.2585V11.7807C15.4283 10.9918 15.5959 10.833 16.1517 10.833C16.5601 10.833 17.2633 11.0397 18.9029 12.6188C20.7757 14.4916 21.0858 15.3322 22.1381 15.3322H24.9007C25.6896 15.3322 26.0841 14.9378 25.8572 14.1589C25.6089 13.3838 24.7141 12.2559 23.5269 10.9212C22.8817 10.16 21.9176 9.34081 21.6239 8.93121C21.2143 8.40315 21.3328 8.16999 21.6239 7.70117C21.6252 7.70243 24.9914 2.96121 25.3418 1.34929Z" fill="white"/>
</svg>
