<svg width="22" height="18" viewBox="0 0 22 18" fill="none" xmlns="http://www.w3.org/2000/svg">
<path d="M21.4973 2.29304C20.8991 3.16804 20.1759 3.91357 19.3276 4.52964C19.3366 4.65464 19.341 4.84214 19.341 5.09214C19.341 6.25286 19.1714 7.41357 18.8321 8.57429C18.4928 9.72607 17.975 10.8332 17.2785 11.8957C16.591 12.9582 15.7696 13.9002 14.8142 14.7216C13.8589 15.5341 12.7071 16.1859 11.3589 16.677C10.0107 17.1591 8.56871 17.4002 7.033 17.4002C4.61335 17.4002 2.39907 16.7529 0.390137 15.4582C0.702637 15.4939 1.05085 15.5118 1.43478 15.5118C3.44371 15.5118 5.23389 14.8957 6.80532 13.6636C5.86782 13.6457 5.02853 13.36 4.28746 12.8064C3.54639 12.2439 3.03746 11.5296 2.76067 10.6636C3.05532 10.7082 3.32764 10.7305 3.57764 10.7305C3.96157 10.7305 4.34103 10.6814 4.71603 10.5832C3.71603 10.3779 2.88567 9.88232 2.22496 9.09661C1.57317 8.30197 1.24728 7.38232 1.24728 6.33768V6.28411C1.85442 6.6234 2.50621 6.80643 3.20264 6.83322C2.61335 6.44036 2.1446 5.92697 1.79639 5.29304C1.44817 4.65911 1.27407 3.97161 1.27407 3.23054C1.27407 2.44482 1.47049 1.71715 1.86335 1.0475C2.94371 2.37786 4.25621 3.44482 5.80085 4.24839C7.35442 5.04304 9.01514 5.485 10.783 5.57429C10.7116 5.235 10.6759 4.90464 10.6759 4.58322C10.6759 3.38679 11.0955 2.36893 11.9348 1.52965C12.783 0.681431 13.8053 0.257324 15.0017 0.257324C16.2517 0.257324 17.3053 0.712681 18.1625 1.6234C19.1357 1.4359 20.0509 1.08768 20.908 0.578753C20.5776 1.60554 19.9437 2.40018 19.0062 2.96268C19.8366 2.8734 20.6669 2.65018 21.4973 2.29304Z" fill="white"/>
</svg>
