<svg width="14" height="18" viewBox="0 0 14 18" fill="none" xmlns="http://www.w3.org/2000/svg">
<path d="M1.15386 17.4616C0.958174 17.4589 0.766074 17.4087 0.594154 17.3152C0.413727 17.2162 0.263324 17.0703 0.158769 16.893C0.0542141 16.7157 -0.000630008 16.5136 5.46012e-06 16.3077V1.66931C0.00400747 1.46529 0.0620402 1.26599 0.168187 1.09172C0.274333 0.917445 0.424797 0.774438 0.604235 0.677279C0.783673 0.58012 0.985667 0.532283 1.18962 0.538647C1.39358 0.545011 1.5922 0.605348 1.76523 0.713505L13.4587 8.02411C13.6243 8.12686 13.7609 8.27015 13.8556 8.44042C13.9503 8.61068 14 8.8023 14 8.99713C14 9.19197 13.9503 9.38358 13.8556 9.55385C13.7609 9.72411 13.6243 9.8674 13.4587 9.97016L1.76523 17.2808C1.58307 17.3986 1.3708 17.4614 1.15386 17.4616ZM1.15386 1.39376C1.10878 1.38129 1.06116 1.38129 1.01608 1.39376C0.968648 1.41565 0.928676 1.45098 0.901125 1.49537C0.873574 1.53975 0.859653 1.59125 0.861089 1.64348V16.2819C0.862362 16.3335 0.877267 16.3839 0.904291 16.4279C0.931316 16.4719 0.9695 16.508 1.01497 16.5325C1.06044 16.5569 1.11157 16.569 1.16318 16.5673C1.2148 16.5656 1.26505 16.5504 1.30885 16.523L13.0282 9.24685C13.071 9.22068 13.1063 9.18398 13.1308 9.14026C13.1553 9.09653 13.1681 9.04725 13.1681 8.99713C13.1681 8.94701 13.1553 8.89773 13.1308 8.854C13.1063 8.81028 13.071 8.77358 13.0282 8.74742L1.30885 1.44543C1.2636 1.41293 1.20956 1.39492 1.15386 1.39376Z" fill="white"/>
</svg>
