<svg width="79" height="80" viewBox="0 0 79 80" fill="none" xmlns="http://www.w3.org/2000/svg">
<path d="M71.2202 8.67794C71.0567 8.6713 70.8931 8.67019 70.7294 8.6748H64.5607V3.37354C64.5609 1.25304 62.5367 0 60.4162 0H54.7295C52.609 0 51.0669 1.25304 51.0669 3.37354V8.67462H27.9343V3.37354C27.9343 1.25304 26.3922 0 24.2717 0H18.5849C16.4646 0 14.4404 1.25304 14.4404 3.37354V8.67462H8.27182C4.33412 8.56485 1.053 11.6681 0.943232 15.6056C0.938619 15.7691 0.939726 15.9329 0.946368 16.0964V71.8071C0.946368 76.0481 4.03063 79.9998 8.27164 79.9998H70.7296C74.9706 79.9998 78.0549 76.0481 78.0549 71.8071V16.0964C78.2161 12.1605 75.156 8.83918 71.2202 8.67794ZM54.7295 3.85543H60.7055V14.4578H54.7295V3.85543ZM18.5851 3.85543H24.0791V14.4578H18.5851V3.85543ZM74.1995 71.8071C74.1995 73.9276 72.8501 76.1444 70.7296 76.1444H8.27182C6.15132 76.1444 4.80198 73.9276 4.80198 71.8071V30.8434H74.1995V71.8071ZM74.1995 16.0964V26.988H4.80179V16.0964C4.63852 14.2939 5.96739 12.7003 7.76983 12.5371C7.93661 12.5219 8.10449 12.5197 8.27164 12.5302H14.4404V14.6507C14.4404 16.7712 16.4644 18.3134 18.5849 18.3134H24.2717C26.2406 18.3674 27.8803 16.815 27.9343 14.8461C27.9362 14.781 27.9362 14.7159 27.9343 14.6507V12.53H51.0669V14.6505C51.0129 16.6194 52.5653 18.2591 54.5342 18.3132C54.5993 18.315 54.6644 18.315 54.7295 18.3132H60.4164C62.5369 18.3132 64.5609 16.771 64.5609 14.6505V12.53H70.7296C72.5359 12.4162 74.0925 13.7883 74.2063 15.5946C74.2168 15.7617 74.2146 15.9296 74.1995 16.0964Z" fill="white"/>
<path d="M28.8023 57.1569L27.0674 66.7955C26.9987 67.2089 27.0666 67.6336 27.2609 68.005C27.7544 68.9483 28.9193 69.313 29.8625 68.8195L38.5372 64.2894L47.2118 68.8195L48.0792 69.0123C48.4975 69.0197 48.9057 68.8835 49.2358 68.6267C49.8119 68.2059 50.1084 67.5015 50.0069 66.7953L48.272 57.1567L55.3082 50.4098C55.8117 49.8658 55.9943 49.0983 55.7901 48.3858C55.5305 47.7272 54.9457 47.2522 54.2479 47.1328L44.6094 45.687L40.2721 36.9159C40.083 36.5255 39.7679 36.2102 39.3775 36.0213C38.4193 35.5573 37.2664 35.9578 36.8022 36.9159L32.4649 45.687L22.8264 47.1328C22.1286 47.252 21.5438 47.7272 21.2842 48.3858C21.08 49.0983 21.2628 49.8658 21.7661 50.4098L28.8023 57.1569ZM34.1035 49.3498C34.7089 49.2592 35.2217 48.8563 35.4529 48.2895L38.5372 42.1208L41.6214 48.2895C41.8528 48.8563 42.3655 49.2592 42.9708 49.3498L49.8141 50.3135L44.8985 55.0364C44.4406 55.4897 44.2258 56.1339 44.3201 56.7713L45.4767 63.6147L39.4044 60.3377L38.537 60.1449L37.6695 60.3377L31.5973 63.6147L32.7538 56.7713C32.8483 56.1339 32.6334 55.4897 32.1755 55.0364L27.2598 50.3135L34.1035 49.3498Z" fill="white"/>
</svg>
