<svg width="81" height="80" viewBox="0 0 81 80" fill="none" xmlns="http://www.w3.org/2000/svg">
<path d="M74.5906 12.727C68.8675 12.727 64.2115 8.07094 64.2115 2.34812V0H16.7886V2.34812C16.7886 8.07125 12.1325 12.727 6.40965 12.727H4.06152V28.3423C4.06152 39.5634 7.44168 50.3683 13.837 59.5886C20.2323 68.8088 29.1678 75.7606 39.6775 79.6922L40.5001 80L41.3229 79.6922C51.8328 75.7606 60.7682 68.8089 67.1632 59.5886C73.5586 50.3683 76.9387 39.5634 76.9387 28.3423V12.727H74.5906ZM72.2426 28.3423H72.2425C72.2425 38.6023 69.1517 48.4814 63.3042 56.9119C57.6247 65.1006 49.7531 71.3327 40.5 74.9775C31.247 71.3325 23.3753 65.1006 17.6957 56.9119C11.8484 48.4816 8.75777 38.6023 8.75777 28.3423V17.2408C15.1937 16.2298 20.2914 11.1322 21.3023 4.69625H59.6981C60.7089 11.1322 65.8065 16.2298 72.2426 17.2408V28.3423V28.3423Z" fill="white"/>
<path d="M50.9777 22.0605L35.4344 37.604L30.0218 32.1913L20.0596 42.1537L35.4344 57.5286L60.9399 32.0229L50.9777 22.0605ZM26.7011 42.154L30.0219 38.8332L35.4346 44.2459L50.9778 28.7024L54.2986 32.0232L35.4346 50.8873L26.7011 42.154Z" fill="white"/>
</svg>
