<svg width="81" height="80" viewBox="0 0 81 80" fill="none" xmlns="http://www.w3.org/2000/svg">
<path fill-rule="evenodd" clip-rule="evenodd" d="M25.5 72.5C25.5 71.1193 26.6193 70 28 70H53C54.3807 70 55.5 71.1193 55.5 72.5C55.5 73.8807 54.3807 75 53 75H28C26.6193 75 25.5 73.8807 25.5 72.5Z" fill="white"/>
<path fill-rule="evenodd" clip-rule="evenodd" d="M40.5 50C41.8807 50 43 51.1193 43 52.5V72.5C43 73.8807 41.8807 75 40.5 75C39.1193 75 38 73.8807 38 72.5V52.5C38 51.1193 39.1193 50 40.5 50Z" fill="white"/>
<path fill-rule="evenodd" clip-rule="evenodd" d="M57.9811 5C59.3072 5 60.579 5.52679 61.5167 6.46447C62.4541 7.40191 62.9809 8.67329 62.9811 9.99902C62.9811 9.99935 62.9811 9.99967 62.9811 10H60.4812L62.9811 9.99606C62.9811 9.99705 62.9811 9.99803 62.9811 9.99902C62.9874 13.9679 62.9999 27.0881 62.9999 35C62.9999 41.1373 59.0653 46.163 54.642 49.51C50.224 52.853 44.7056 55 40.4936 55C36.2816 55 30.7645 52.8528 26.3481 49.5097C21.9261 46.1624 17.9937 41.1368 17.9937 35C17.9937 32.6062 17.9987 27.5572 18.0038 22.5115L18.0038 22.5092C18.0089 17.4627 18.014 12.4199 18.014 10.0328L18.014 10.025C18.0181 8.70163 18.5467 7.43387 19.484 6.49956C20.4208 5.56567 21.6895 5.04109 23.0122 5.04063L23.0111 5.04063L23.014 7.54062L23.014 5.04062L57.9811 5ZM57.9811 10L23.014 10.0406C23.014 12.4333 23.0089 17.4714 23.0038 22.509L23.0038 22.5166C22.9987 27.5639 22.9937 32.6094 22.9937 35C22.9937 38.9069 25.5456 42.6313 29.3658 45.5231C33.1915 48.419 37.6745 50 40.4936 50C43.313 50 47.7976 48.4189 51.625 45.5228C55.447 42.6308 57.9999 38.9064 57.9999 35C57.9999 27.0889 57.9874 13.9668 57.9811 10.0039V10Z" fill="white"/>
<path fill-rule="evenodd" clip-rule="evenodd" d="M5.5 15C5.5 13.6193 6.61929 12.5 8 12.5H20.5C21.8807 12.5 23 13.6193 23 15C23 16.3807 21.8807 17.5 20.5 17.5H10.5C10.5 21.3471 11.6787 25.2304 13.6026 28.09C15.5357 30.9634 17.9807 32.5 20.5 32.5C21.8807 32.5 23 33.6193 23 35C23 36.3807 21.8807 37.5 20.5 37.5C15.7615 37.5 11.9565 34.6007 9.45406 30.881C6.94239 27.1477 5.5 22.281 5.5 17.5V15Z" fill="white"/>
<path fill-rule="evenodd" clip-rule="evenodd" d="M58 15C58 13.6193 59.1193 12.5 60.5 12.5H73C74.3807 12.5 75.5 13.6193 75.5 15V17.5C75.5 22.281 74.0576 27.1477 71.5459 30.881C69.0435 34.6007 65.2385 37.5 60.5 37.5C59.1193 37.5 58 36.3807 58 35C58 33.6193 59.1193 32.5 60.5 32.5C63.0193 32.5 65.4643 30.9634 67.3974 28.09C69.3213 25.2304 70.5 21.3471 70.5 17.5H60.5C59.1193 17.5 58 16.3807 58 15Z" fill="white"/>
</svg>
